<svg preserveAspectRatio="none" overflow="visible" style="display: block;" width="18.9845" height="19" viewBox="0 0 18.9845 19" fill="none" xmlns="http://www.w3.org/2000/svg">
<path id="Vector" d="M18.4578 11.702L11.702 18.4578C11.5203 18.6384 11.3159 18.774 11.0887 18.8645C10.8616 18.9548 10.6351 19 10.4093 19C10.1833 19 9.95725 18.9548 9.73125 18.8645C9.50525 18.774 9.30192 18.6384 9.12125 18.4578L0.527 9.873C0.3565 9.709 0.226 9.5165 0.1355 9.2955C0.0451666 9.0745 0 8.842 0 8.598V1.81725C0 1.31758 0.176583 0.889749 0.52975 0.533749C0.883083 0.177916 1.31225 0 1.81725 0H8.598C8.8395 0 9.07342 0.0490001 9.29975 0.147C9.52625 0.244833 9.7225 0.376583 9.8885 0.54225L18.4578 9.127C18.6409 9.30867 18.7745 9.513 18.8585 9.74C18.9425 9.96717 18.9845 10.1949 18.9845 10.4233C18.9845 10.6516 18.9425 10.8761 18.8585 11.0968C18.7745 11.3176 18.6409 11.5193 18.4578 11.702ZM4.025 5.27875C4.37367 5.27875 4.66983 5.15725 4.9135 4.91425C5.157 4.67125 5.27875 4.37608 5.27875 4.02875C5.27875 3.67892 5.15725 3.38158 4.91425 3.13675C4.67125 2.89175 4.37608 2.76925 4.02875 2.76925C3.67892 2.76925 3.38158 2.89133 3.13675 3.1355C2.89175 3.37967 2.76925 3.67617 2.76925 4.025C2.76925 4.37367 2.89133 4.66983 3.1355 4.9135C3.37967 5.157 3.67617 5.27875 4.025 5.27875Z" fill="white"/>
</svg>
