<svg preserveAspectRatio="none" overflow="visible" style="display: block;" width="25.3126" height="22.5" viewBox="0 0 25.3126 22.5" fill="none" xmlns="http://www.w3.org/2000/svg">
<path id="icon" d="M11.202 18.4535C11.249 18.5945 11.2618 18.7445 11.2394 18.8914C11.217 19.0382 11.16 19.1777 11.0732 19.2982C10.9863 19.4187 10.872 19.5168 10.7398 19.5845C10.6076 19.6522 10.4611 19.6875 10.3126 19.6875H0.93757C0.789013 19.6875 0.642581 19.6522 0.510341 19.5845C0.378101 19.5168 0.26384 19.4187 0.176974 19.2982C0.090109 19.1777 0.0331262 19.0382 0.0107225 18.8914C-0.0116813 18.7445 0.00113552 18.5945 0.0481165 18.4535L4.73562 4.39102C4.79781 4.20431 4.91718 4.0419 5.07682 3.92681C5.23646 3.81173 5.42827 3.74979 5.62507 3.74979C5.82187 3.74979 6.01368 3.81173 6.17332 3.92681C6.33295 4.0419 6.45233 4.20431 6.51452 4.39102L11.202 18.4535ZM22.5001 6.09375C22.5001 4.88852 22.1427 3.71036 21.4731 2.70825C20.8035 1.70613 19.8518 0.925083 18.7383 0.463862C17.6248 0.00264033 16.3996 -0.118036 15.2175 0.117092C14.0354 0.352221 12.9496 0.932594 12.0974 1.78482C11.2452 2.63705 10.6648 3.72285 10.4297 4.90492C10.1945 6.08699 10.3152 7.31224 10.7764 8.42573C11.2376 9.53922 12.0187 10.4909 13.0208 11.1605C14.0229 11.8301 15.2011 12.1875 16.4063 12.1875C18.0219 12.1856 19.5708 11.543 20.7132 10.4006C21.8556 9.25823 22.4982 7.70934 22.5001 6.09375ZM24.3751 14.0625H14.0626C13.8139 14.0625 13.5755 14.1613 13.3997 14.3371C13.2238 14.5129 13.1251 14.7514 13.1251 15V21.5625C13.1251 21.8111 13.2238 22.0496 13.3997 22.2254C13.5755 22.4012 13.8139 22.5 14.0626 22.5H24.3751C24.6237 22.5 24.8622 22.4012 25.038 22.2254C25.2138 22.0496 25.3126 21.8111 25.3126 21.5625V15C25.3126 14.7514 25.2138 14.5129 25.038 14.3371C24.8622 14.1613 24.6237 14.0625 24.3751 14.0625Z" fill="#1F7F93"/>
</svg>
