<svg preserveAspectRatio="none" overflow="visible" style="display: block;" width="27.9792" height="33.9508" viewBox="0 0 27.9792 33.9508" fill="none" xmlns="http://www.w3.org/2000/svg">
<path id="icon" d="M0 30.9181V3.03277C0 2.11352 0.303183 1.37825 0.909548 0.826947C1.51591 0.275649 2.22365 0 3.03277 0C3.29746 0 3.5656 0.0350423 3.83719 0.105128C4.10939 0.174588 4.37785 0.279087 4.64254 0.418633L26.5778 14.4336C27.0452 14.7608 27.3956 15.1341 27.629 15.5534C27.8625 15.972 27.9792 16.446 27.9792 16.9754C27.9792 17.5048 27.8625 17.9788 27.629 18.3975C27.3956 18.8167 27.0452 19.19 26.5778 19.5173L4.64254 33.5322C4.37785 33.6717 4.10939 33.7762 3.83719 33.8457C3.5656 33.9158 3.29746 33.9508 3.03277 33.9508C2.22365 33.9508 1.51591 33.6752 0.909548 33.1239C0.303183 32.5726 0 31.8373 0 30.9181ZM3.75458 29.5533L23.6107 16.9754L3.75458 4.39755V29.5533Z" fill="white"/>
</svg>
